<svg xmlns="http://www.w3.org/2000/svg" width="360" height="277" fill="none" viewBox="0 0 360 277">
    <path fill="#CAC1C1" d="M279.808 32.894h-2.885v211.212h2.885V32.894zM126.923 32.894h-2.885v211.212h2.885V32.894zM175.962 32.894h-2.885v211.212h2.885V32.894z"/>
    <path fill="#CAC1C1" d="M319.615 67.519H40.385v2.884h279.23V67.52zM319.615 206.596H40.385v2.884h279.23v-2.884z"/>
    <path fill="#CAC1C1" d="M230.769 239.779V37.221c0-2.39-1.937-4.327-4.327-4.327-2.389 0-4.327 1.937-4.327 4.327v202.558c0 2.39 1.938 4.327 4.327 4.327 2.39 0 4.327-1.937 4.327-4.327zM77.885 32.894H75v211.212h2.885V32.894z"/>
    <path fill="#585151" d="M26.585 73.359v-8.07h-.702v2.88H24v.592h1.883v4.598h.702zm-1.791-2.465c-1.108-.647-2.068-1.958-2.068-3.435V65.99h-.73v1.495c0 1.432-.931 2.863-2.104 3.601l.462.527c.932-.674 1.726-1.672 2.012-2.678.323.97 1.256 1.994 1.994 2.493l.434-.535zM34.95 69.785c-1.2-.11-2.843-1.024-2.982-2.058h2.594v-.592h-5.944v.591h2.612c-.13 1.035-1.67 1.958-2.982 2.106l.296.59c1.394-.258 2.695-1.024 3.046-1.91.424.876 1.717 1.643 3.046 1.883l.314-.61zm.286 2.549v-.591h-3.305v-1.837h-.701v1.837h-3.277v.59h7.283zM32.91 66.23v-.637h-2.64v.637h2.64zM329.003 67.006h1.468v1.32h-1.468l-.009.582h1.477v1.136h.701v-4.755h-.701v1.126h-1.477l.009.591zm-3.24 3.463v.582h4.708v2.317h.701v-2.9h-5.409zm.979-4.71c-1.136 0-2.077.776-2.077 1.949 0 1.163.941 1.902 2.077 1.902 1.135 0 2.067-.739 2.067-1.911 0-1.182-.932-1.94-2.067-1.94zm0 .6c.83 0 1.366.537 1.366 1.349 0 .803-.545 1.33-1.366 1.33-.794 0-1.376-.527-1.376-1.34 0-.812.582-1.338 1.376-1.338zM339.999 67.911v-.59h-1.228v-2.032h-.701v4.672h.701v-2.05h1.228zm-1.228 5.337v-2.862h-5.067v2.862h5.067zm-.701-.582h-3.665v-1.699h3.665v1.7zm-.96-3.684c-.914-.332-1.975-1.32-1.975-2.604v-.71h-.711v.738c0 1.283-.877 2.3-2.031 2.835l.434.535c.941-.48 1.726-1.283 1.975-2.142.323.813 1.117 1.524 1.893 1.893l.415-.545zM91.939 57.852v-.86h-2.724v-2.51h-1.07v2.51h-.886v-2.51h-1.09v2.51h-1.661v.86h7.43zm-.813-6.215h-5.76v.868h4.67c.01 1.182-.073 2.512-.313 3.435l1.043.148c.259-1.099.36-2.364.36-4.45zM99.491 59.015v-8.227h-1.034v3.24h-.729v-3.092h-1.015v7.7h1.015v-3.748h.73v4.127h1.033zm-5.677-2.835v-3.564c.684 0 1.357.01 2.031.01v-.86h-3.11v5.3h.784c.95 0 2.16-.055 2.778-.221l-.101-.85c-.554.14-1.541.213-2.382.185zM101.552 55.922v.858h4.652v2.244h1.08v-3.102h-5.732zm3.471-1.311h1.181v.886h1.08v-4.709h-1.08v1.006h-1.181l.027.905h1.154v1.007h-1.154l-.027.905zm-4.468-1.385c0 1.163.932 1.939 2.105 1.939 1.2 0 2.114-.776 2.114-1.94 0-1.154-.933-2.012-2.114-2.012-1.191 0-2.105.868-2.105 2.013zm1.043-.01c0-.59.416-1.108 1.062-1.108.683 0 1.08.499 1.08 1.108 0 .628-.434 1.108-1.08 1.108-.646 0-1.062-.461-1.062-1.108zM63.019 24.875v-.591h-3.804v-2.918h-.701v2.918h-2.779v.59h7.284zm-.979-6.067h-5.557v.591h4.828v.785c0 1.062-.102 2.28-.286 3.038l.692.11c.24-1.024.314-2.28.323-3.508v-1.016zM71.005 22.612v-.59H67.71v-1.284h-.702v1.284h-3.286v.59h7.283zm-.332-2.059c-1.21-.11-2.935-1.052-2.935-2.188v-.295h-.73v.295c0 1.136-1.56 2.06-2.917 2.207l.333.59c1.384-.248 2.612-1.116 2.935-1.892.388.776 1.652 1.643 2.99 1.893l.324-.61zm-6.166 2.918v.582h4.901v2.04h.702v-2.622h-5.603zM72.687 23.564v-2.041h2.797v-.573h-2.797v-1.67h3.12v-.582h-3.821v5.466h.83c1.422 0 2.78-.12 3.665-.287l-.083-.59c-.803.175-2.206.277-3.535.277h-.176zm5.622 2.474v-8.07h-.702v3.093H76.01v.6h1.597v4.377h.702zM86.268 26.038v-8.07h-.701v8.07h.701zm-2.317-2.078V18.8H80.14v5.16h3.812zm-.701-.581h-2.4V19.38h2.4v3.998zM94.273 22.15v-4.182h-.701v1.404h-2.465v.581h2.465v2.198h.701zm.305 3.823v-.581H89.74v-.868h4.541v-1.948H89.03v.581h4.551v.813h-4.542v2.003h5.539zm-2.216-5.06c-.913.194-2.455.36-3.535.342v-2.834h-.701v3.434h.6c1.061 0 2.87-.166 3.729-.35l-.093-.591zM221.243 20.96v-.591h-1.228v-2.4h-.701v5.853h.701V20.96h1.228zm-.914 4.801v-.582h-4.744v-1.902h-.702v2.484h5.446zm-2.455-3.158v-4.09h-.711v1.385h-2.4v-1.385h-.701v4.09h3.812zm-.711-.572h-2.4v-1.56h2.4v1.56zM228.39 22.677v-.59h-1.32l.323-2.134-.692-.12-.287 2.253h-1.984l-.166-2.262-.72.101.221 2.161h-1.32v.591h2.631v1.745h-3.277v.591h7.283v-.59h-3.304v-1.746h2.612zm.009-3.287v-.59h-5.963v.59h5.963zM232.691 25.004h.729v-6.196h-.729v6.196zM237.396 25.105c.73 0 1.293-.166 1.708-.406v-.619c-.388.194-.849.407-1.615.407-1.422 0-2.013-.923-2.013-2.512v-.304c0-1.644.831-2.346 2.004-2.346.609 0 1.07.139 1.56.333v-.61c-.379-.203-.859-.341-1.524-.341-1.578 0-2.815.868-2.815 3.084v.184c0 2.096 1.025 3.13 2.695 3.13zM220.431 258.603v-8.07h-.702v2.881h-1.883v.59h1.883v4.599h.702zm-1.791-2.466c-1.108-.646-2.068-1.957-2.068-3.434v-1.469h-.729v1.496c0 1.431-.932 2.863-2.105 3.601l.462.527c.932-.674 1.726-1.672 2.012-2.678.323.969 1.256 1.994 1.994 2.493l.434-.536zM228.796 255.029c-1.2-.11-2.843-1.025-2.982-2.059h2.594v-.591h-5.944v.591h2.612c-.129 1.034-1.671 1.958-2.982 2.106l.296.59c1.394-.258 2.695-1.024 3.046-1.911.425.877 1.717 1.644 3.046 1.884l.314-.61zm.286 2.549v-.591h-3.304v-1.838h-.702v1.838h-3.277v.591h7.283zm-2.326-6.103v-.638h-2.64v.638h2.64zM232.691 257.569h.729v-6.196h-.729v6.196zM237.396 257.67c.73 0 1.293-.166 1.708-.406v-.619c-.388.194-.849.406-1.615.406-1.422 0-2.013-.923-2.013-2.511v-.305c0-1.643.831-2.345 2.004-2.345.609 0 1.07.139 1.56.332v-.609c-.379-.203-.859-.342-1.524-.342-1.578 0-2.815.868-2.815 3.084v.185c0 2.096 1.025 3.13 2.695 3.13zM37.772 226.415v-.591h-1.227v-1.837h-.702v4.506h.702v-2.078h1.227zm-1.227 5.466v-2.89H31.44v2.89h5.105zm-.702-.581h-3.702v-1.727h3.702v1.727zm-.71-4.257c-.942.212-2.484.379-3.832.351v-2.936H30.6v3.536h.71c1.284 0 2.955-.166 3.887-.369l-.065-.582zM44.734 227.856v-3.555h-.701v1.191h-4.108v-1.191h-.71v3.555h5.52zm-2.418 4.21v-2.659h3.305v-.591h-7.284v.591h3.277v2.659h.702zm1.717-4.792h-4.108v-1.21h4.108v1.21zM47.303 229.582v-2.04H50.1v-.573h-2.797v-1.671h3.12v-.582H46.6v5.466h.831c1.421 0 2.779-.12 3.665-.286l-.084-.591c-.802.176-2.206.277-3.535.277h-.175zm5.621 2.475v-8.07h-.701v3.093h-1.597v.6h1.597v4.377h.701zM60.883 232.057v-8.07h-.701v8.07h.701zm-2.317-2.078v-5.161h-3.812v5.161h3.813zm-.701-.581h-2.4V225.4h2.4v3.998zM68.889 228.17v-4.183h-.702v1.403h-2.465v.582h2.465v2.198h.702zm.304 3.822v-.582h-4.837v-.868h4.542v-1.948h-5.252v.582h4.55v.812h-4.541v2.004h5.538zm-2.215-5.06c-.914.194-2.456.36-3.535.342v-2.835h-.702v3.435h.6c1.062 0 2.87-.166 3.73-.351l-.093-.591zM92.06 191.003v-7.061h-.614v2.521h-1.648v.517h1.648v4.023h.614zm-1.567-2.157c-.97-.566-1.81-1.713-1.81-3.006v-1.284h-.638v1.309c0 1.252-.815 2.504-1.841 3.151l.404.46c.816-.59 1.51-1.462 1.76-2.343.283.848 1.099 1.745 1.745 2.182l.38-.469zM99.088 190.938v-.5h-4.474v-.703h4.248v-1.568h-2.124v-.719h2.892v-.509h-6.373v.509h2.867v.719h-2.14v.493h4.264v.614H94v1.664h5.088zm-.129-5.663c0-.784-.945-1.244-2.512-1.244-1.542 0-2.504.46-2.504 1.244s.962 1.236 2.504 1.236c1.567 0 2.512-.452 2.512-1.236zm-2.512-.735c1.14 0 1.882.283 1.882.735 0 .444-.743.719-1.882.719-1.13 0-1.865-.275-1.865-.719 0-.452.735-.735 1.865-.735zM106.618 189.961v-.517h-2.375v-2.44h-.613v2.44h-1.172v-2.44h-.613v2.44h-1.6v.517h6.373zm-.783-5.235h-4.919v.517h4.28v.638c0 .929-.088 1.995-.25 2.658l.614.097c.202-.897.266-1.996.275-3.07v-.84zM113.186 191.003v-7.061h-.605v2.779h-.945v-2.609h-.598v6.528h.598v-3.402h.945v3.765h.605zm-5.12-2.351v-3.329h2.124v-.517h-2.738v4.379h.468c.921 0 2.108-.081 2.779-.21l-.057-.501c-.597.13-1.656.178-2.366.178h-.21zM137.637 181.77v-7.062h-.614v2.521h-1.648v.517h1.648v4.024h.614zm-1.567-2.157c-.97-.566-1.81-1.713-1.81-3.006v-1.284h-.638v1.308c0 1.253-.815 2.505-1.841 3.151l.404.461c.815-.59 1.51-1.463 1.76-2.343.283.848 1.099 1.745 1.745 2.181l.38-.468zM144.956 178.643c-1.05-.097-2.488-.897-2.609-1.802h2.27v-.517h-5.202v.517h2.286c-.113.905-1.462 1.713-2.609 1.842l.259.518c1.219-.227 2.358-.897 2.665-1.673.372.768 1.502 1.438 2.666 1.648l.274-.533zm.251 2.23v-.517h-2.892v-1.608h-.614v1.608h-2.867v.517h6.373zm-2.036-5.34v-.558h-2.31v.558h2.31zM146.961 180.897h.614v-5.542h-.339l-1.276.598v.371l1.001-.234v4.807zM154.323 180.534c0-.8-.881-1.228-2.432-1.228-1.542 0-2.415.46-2.415 1.228 0 .783.873 1.236 2.415 1.236 1.551 0 2.432-.445 2.432-1.236zm-.009-3.151v-.509h-4.208v-1.317h4.176v-.509h-4.798v2.335h2.1v.896h-2.875v.509h6.373v-.509h-2.884v-.896h2.116zm-2.423 2.423c1.123 0 1.802.275 1.802.728 0 .468-.679.727-1.802.727-1.106 0-1.785-.259-1.785-.727 0-.453.679-.728 1.785-.728zM137.919 186.786c-1.082-.122-2.528-.841-2.56-1.834h2.269v-.509h-5.201v.509h2.286c-.033.985-1.398 1.729-2.553 1.85l.283.517c1.204-.202 2.302-.929 2.585-1.592.323.663 1.445 1.374 2.6 1.576l.291-.517zm-2.592 4.217v-2.529h2.891v-.517h-6.373v.517h2.868v2.529h.614zM144.601 189.072v-5.13h-.614v5.13h.614zm.153 1.697v-.509h-4.135v-1.673h-.614v2.182h4.749zm-2.229-2.925v-3.264h-3.328v3.264h3.328zm-.614-.509h-2.108v-2.254h2.108v2.254zM152.041 190.769v-.509h-4.288v-1.721h-.614v2.23h4.902zm-2.665-3.264c-.703-.356-1.454-1.115-1.454-2.141v-.857h-.606v.865c0 1.018-.638 1.915-1.502 2.351l.38.452c.711-.412 1.268-1.123 1.437-1.737.227.598.824 1.228 1.398 1.519l.347-.452zm1.058 1.462v-4.896h-.589v1.729h-1.059v.509h1.059v2.658h.589zm1.341.242v-5.267h-.614v5.267h.614zM153.667 188.838v-1.786h2.447v-.501h-2.447v-1.462h2.73v-.509h-3.344v4.783h.727c1.244 0 2.431-.105 3.206-.251l-.072-.517c-.703.154-1.931.243-3.094.243h-.153zm4.919 2.165v-7.061h-.614v2.706h-1.397v.525h1.397v3.83h.614z"/>
    <path fill="#2B6425" d="M142.486 128.029v-.886h-1.172v-1.911h-1.089v4.607h1.089v-1.81h1.172zm-1.172 5.328v-3.13h-5.335v3.13h5.335zm-1.08-.84h-3.166v-1.459h3.166v1.459zm-.517-3.777c-.969-.314-1.911-1.237-1.911-2.502v-.655h-1.116v.701c0 1.247-.794 2.216-1.994 2.65l.655.85c.766-.25 1.652-1.034 1.911-1.865.351.757 1.209 1.412 1.837 1.662l.618-.841zM149.67 130.033v-4.801h-1.08v1.708h-1.403v.859h1.403v2.234h1.08zm-1.883-1.154c-.96-.314-1.901-1.237-1.901-2.512v-.757h-1.117v.813c0 1.246-.794 2.207-1.985 2.641l.646.858c.766-.258 1.662-1.034 1.911-1.874.36.766 1.209 1.422 1.828 1.671l.618-.84zm1.939 2.918c0-1.025-1.034-1.672-2.834-1.672-1.773 0-2.797.647-2.797 1.672 0 .997 1.024 1.652 2.797 1.652 1.8 0 2.834-.655 2.834-1.652zm-2.834-.804c1.107 0 1.717.305 1.717.804 0 .489-.61.784-1.717.784-1.062 0-1.69-.295-1.69-.784 0-.499.628-.804 1.69-.804zM157.334 133.357v-3.038h-5.529v3.038h5.529zm0-7.802h-5.529v.859h4.449c.009.544-.092 1.551-.222 2.086h-5.178v.859h7.431v-.859h-1.228c.175-.785.277-1.846.277-2.945zm-1.071 6.962h-3.388v-1.376h3.388v1.376zM165.487 131.935c0-.499-.323-.905-.905-1.173v-.951h1.689v-.868h-7.43v.868h1.68v.951c-.582.268-.887.674-.887 1.173 0 .951 1.071 1.524 2.927 1.524 1.855 0 2.926-.573 2.926-1.524zm-5.797-4.94c0 .905 1.024 1.588 2.871 1.588 1.846 0 2.87-.683 2.87-1.588 0-.914-1.024-1.579-2.88-1.579-1.837 0-2.861.665-2.861 1.579zm1.117 0c0-.443.637-.748 1.744-.748 1.127 0 1.763.305 1.763.748s-.673.757-1.763.757c-1.107 0-1.744-.314-1.744-.757zm3.591 4.949c0 .425-.72.665-1.847.665-1.107 0-1.827-.24-1.827-.665 0-.434.72-.674 1.827-.674 1.127 0 1.847.24 1.847.674zm-2.788-2.133h1.892v.665c-.286-.046-.609-.064-.951-.064-.341 0-.655.027-.941.064v-.665zM145.871 144.899v-2.937h-5.603v2.937h5.603zm0-3.315v-4.811h-1.025v1.958h-.711v-1.81h-1.006v4.608h1.006v-1.93h.711v1.985h1.025zm-3.425-4.183h-3.166v.868h2.049c-.028.203-.065.397-.129.582l-2.243.194.166.877 1.652-.222c-.434.628-1.098 1.127-1.911 1.385l.628.822c1.819-.794 2.954-2.382 2.954-4.506zm2.345 6.657h-3.443v-1.274h3.443v1.274zM151.707 142.849l-.083-.831c-.305.046-.665.092-1.099.129.092-1.062.185-2.133.295-3.185l-1.043-.12-.184 3.351c-.231.019-.489.028-.757.037l-.166-3.37c-.36.046-.711.102-1.062.139.083 1.089.185 2.169.268 3.259h-1.08c.037.305.092.6.138.905 1.782 0 3.794-.12 4.773-.314zm1.957 2.151v-8.227h-1.08v3.094h-1.219v.914h1.219V145h1.08zm-2.114-6.666v-.85h-4.579v.85h4.579zM162.278 143.929v-.859h-7.431v.859h7.431zm-.157-3.37c-1.255-.212-2.991-1.293-2.991-2.742v-.545h-1.126v.545c0 1.459-1.634 2.548-2.981 2.742l.507.877c1.136-.249 2.603-1.126 3.028-2.234.471 1.08 1.892 1.939 3.018 2.197l.545-.84z"/>
    <path fill="#585151" d="M258.282 86.978v-.517h-1.074v-1.778h-.614v4.088h.614v-1.793h1.074zm-1.074 4.67v-2.505h-4.435v2.505h4.435zm-.614-.51h-3.207v-1.486h3.207v1.487zm-.84-3.223c-.8-.29-1.729-1.155-1.729-2.278v-.622h-.622v.646c0 1.123-.767 2.012-1.776 2.48l.379.469c.824-.42 1.511-1.123 1.729-1.874.282.71.977 1.333 1.655 1.656l.364-.477zM263.922 86.816v2.254h.613v-4.386h-.613v1.623h-1.519v.51h1.519zm.686 3.587c0-.824-.848-1.333-2.366-1.333-1.511 0-2.359.51-2.359 1.334 0 .824.848 1.333 2.359 1.333 1.518 0 2.366-.51 2.366-1.334zm-2.366-.832c1.098 0 1.744.307 1.744.832 0 .534-.646.833-1.744.833-1.083 0-1.737-.3-1.737-.833 0-.525.654-.832 1.737-.832zm.541-1.527c-.8-.29-1.729-1.139-1.729-2.27v-.687h-.622v.703c0 1.123-.735 2.028-1.752 2.497l.379.476c.816-.412 1.486-1.155 1.704-1.882.275.703.978 1.317 1.656 1.64l.364-.477zM250.583 100.978v-7.061h-.614v2.52h-1.648v.518h1.648v4.023h.614zm-1.567-2.157c-.969-.566-1.809-1.713-1.809-3.006v-1.284h-.638v1.309c0 1.252-.816 2.504-1.842 3.15l.404.461c.816-.59 1.51-1.462 1.761-2.343.282.848 1.098 1.745 1.744 2.181l.38-.468zM257.902 97.851c-1.05-.097-2.487-.896-2.609-1.801h2.27v-.517h-5.201v.517h2.285c-.113.905-1.462 1.713-2.609 1.842l.259.517c1.22-.226 2.358-.897 2.665-1.673.372.768 1.503 1.438 2.666 1.649l.274-.534zm.251 2.23v-.517h-2.892v-1.608h-.614v1.608h-2.867v.517h6.373zm-2.036-5.34v-.558h-2.31v.558h2.31zM265.335 97.286v-.517h-1.139v-2.852h-.614v7.061h.614v-3.692h1.139zm-2.423 1.502c-.977-.573-1.866-1.728-1.866-3.013v-1.236h-.63v1.252c0 1.252-.832 2.52-1.858 3.151l.396.477c.832-.582 1.519-1.479 1.769-2.36.283.857 1.074 1.697 1.801 2.198l.388-.469zM271.411 95.403c0-.808-.921-1.333-2.472-1.333-1.542 0-2.455.526-2.455 1.333 0 .744.783 1.245 2.14 1.31v.71h-2.867v.51h6.373v-.51h-2.892v-.71c1.365-.057 2.173-.566 2.173-1.31zm-.598 0c0 .51-.743.824-1.874.824-1.131 0-1.857-.315-1.857-.824 0-.525.726-.84 1.857-.84s1.874.315 1.874.84zm-4.329 3.256v.51h4.216v1.857h.614v-2.367h-4.83zM296.345 82.468v-.887h-1.173v-1.939h-1.089v4.801h1.089v-1.975h1.173zm-1.071 3.73c0-1.025-1.025-1.671-2.825-1.671-1.763 0-2.787.646-2.787 1.67 0 1.016 1.024 1.672 2.787 1.672 1.8 0 2.825-.656 2.825-1.671zm-1.108 0c0 .508-.628.812-1.717.812-1.071 0-1.689-.304-1.689-.812 0-.499.618-.803 1.689-.803 1.089 0 1.717.304 1.717.803zm-1.292-5.993h-3.831v.896h2.631c-.24 1.385-1.662 2.234-3.028 2.52l.536.86c2.206-.628 3.683-2.023 3.692-4.276zM304.322 82.283v-.887h-1.172v-1.754h-1.089v4.543h1.089v-1.902h1.172zm-1.172 5.484v-3.139h-5.326v3.14h5.326zm-1.089-.849h-3.157v-1.459h3.157v1.459zm-.619-3.481c-.046-.296-.111-.582-.157-.868-1.006.222-2.04.305-3.175.305v-2.807h-1.08v3.72h.821c1.007 0 2.539-.092 3.591-.35zM305.783 84.776v.859h4.652v2.243h1.08v-3.102h-5.732zm3.471-1.311h1.181v.886h1.08v-4.709h-1.08v1.007h-1.181l.027.904h1.154v1.007h-1.154l-.027.905zm-4.468-1.385c0 1.163.932 1.939 2.104 1.939 1.2 0 2.114-.776 2.114-1.94 0-1.153-.932-2.012-2.114-2.012-1.19 0-2.104.868-2.104 2.013zm1.043-.01c0-.59.415-1.107 1.061-1.107.684 0 1.08.498 1.08 1.108 0 .627-.433 1.108-1.08 1.108-.646 0-1.061-.462-1.061-1.109zM242.391 132.96c0-.933-.997-1.524-2.742-1.524-1.763 0-2.751.591-2.751 1.524 0 .942.988 1.533 2.751 1.533 1.745 0 2.742-.591 2.742-1.533zm-2.742-.933c1.274 0 2.022.342 2.022.933 0 .6-.748.951-2.022.951-1.274 0-2.021-.351-2.021-.951 0-.591.747-.933 2.021-.933zm.194-1.837h1.782v1.367h.701v-5.097h-.701v1.459h-1.653v.581h1.653v1.108h-1.782v.582zm.046-3.102h-3.711v.6h2.917c-.24 1.366-1.606 2.705-3.267 3.167l.35.6c2.133-.748 3.591-2.336 3.711-4.367zM242.132 141.87v-3.555h-.701v1.191h-4.108v-1.191h-.711v3.555h5.52zm-2.418 4.211v-2.66h3.304v-.591h-7.283v.591h3.277v2.66h.702zm1.717-4.793h-4.108v-1.209h4.108v1.209zM243.018 156.45v-.591h-3.803v-2.918h-.701v2.918h-2.779v.591h7.283zm-.978-6.067h-5.557v.591h4.828v.785c0 1.062-.102 2.281-.286 3.038l.692.111c.24-1.025.314-2.281.323-3.509v-1.016zM243.018 165.729v-.591h-3.295v-1.283h-.701v1.283h-3.287v.591h7.283zm-.332-2.059c-1.209-.111-2.935-1.053-2.935-2.188v-.296h-.729v.296c0 1.135-1.56 2.059-2.917 2.207l.332.59c1.385-.249 2.612-1.117 2.935-1.892.388.775 1.653 1.643 2.991 1.892l.323-.609zm-6.166 2.918v.581h4.902v2.041h.701v-2.622h-5.603zM243.018 179.671v-.591h-3.304v-1.975h2.483v-.582h-4.874v-2.632h4.828v-.581h-5.539v3.795h2.4v1.975h-3.277v.591h7.283zM243.018 191.213v-.591h-3.304v-1.376h2.631v-.591h-5.013v-1.348h4.782v-2.465h-5.492v.591h4.79v1.293h-4.781v2.52h2.381v1.376h-3.277v.591h7.283z"/>
    <circle cx="100.385" cy="176.588" r="2.308" fill="#585151"/>
    <circle cx="133.846" cy="199.671" r="2.308" fill="#585151"/>
    <circle cx="258.462" cy="77.329" r="2.308" fill="#585151"/>
    <circle cx="68.077" cy="216.406" r="2.308" fill="#585151"/>
    <ellipse cx="150" cy="155.235" fill="#2B6425" rx="4.038" ry="4.04"/>
    <path fill="#585151" d="M86.317 98.395c1.44 0 2.298-.914 2.298-2.087 0-1.339-.784-1.985-2.049-1.985-.24 0-.581.056-.794.111l.12-1.542h2.437v-.886h-3.304l-.231 3.48c.295-.147.886-.341 1.283-.341.868 0 1.366.332 1.366 1.136 0 .766-.535 1.19-1.412 1.19-.49 0-.97-.175-1.311-.378l-.203.868c.406.25 1.08.434 1.8.434zM94.963 94.258v2.89h1.071v-5.964h-1.07v2.197H93.79v.877h1.172zm1.256 4.931v-.85h-4.514v-1.744h-1.08v2.594h5.594zm-2.843-3.398v-4.127h-1.071v1.293h-1.717v-1.275h-1.09v4.11h3.878zm-1.071-.858h-1.717v-1.136h1.717v1.136zM106.464 99.355v-.794h-4.883v-.378h4.56V96.27h-2.252v-.397h3.194v-.803h-7.431v.803h3.157v.397h-2.317v.794h4.578v.37h-4.578v1.92h5.972zm.296-5.346c-1.154-.009-2.271-.332-2.687-.83h2.271v-.813h-5.963v.812h2.299c-.388.499-1.477.84-2.733.831l.434.85c1.311-.065 2.511-.508 2.982-1.164.489.647 1.772 1.08 2.981 1.164l.416-.85zm-4.763-1.957h2.732v-.813h-2.732v.813zM114.119 91.627h-5.566v.868h4.495c0 1.006-.074 1.93-.222 2.64h-5.187v.86h3.157v3.416h1.08v-3.417h3.193v-.858h-1.218c.185-.942.268-2.18.268-3.509zM88.781 105.292h1.45v1.182h-1.45v.868h1.45v3.61h1.08v-8.226h-1.08v1.708h-1.45v.858zm.693 2.992c-1.274-.748-1.939-2.022-1.939-3.656v-1.238h-1.107v1.284c0 1.643-.711 2.945-2.04 3.804l.646.794c.858-.471 1.698-1.524 1.966-2.465.286.858 1.163 1.874 1.846 2.29l.628-.813zM99.242 110.888v-.776h-4.735v-.443h4.468v-1.948h-5.576v.785h4.495v.461h-4.458v1.921h5.806zm-.443-5.974v-.767h-4.246v-.406h4.43v-.812h-5.51v3.185h5.585v-.775h-4.505v-.425h4.246zm1.126 2.437v-.858h-7.43v.858h7.43zM107.275 110.952v-8.226h-1.071v2.89h-1.255v.904h1.255v4.432h1.071zm-2.677-2.031v-5.549h-1.08v1.994h-1.744v-1.976h-1.062v5.531h3.886zm-1.08-.849h-1.744v-1.856h1.744v1.856zM115.899 109.881v-.858h-7.431v.858h7.431zm-.157-3.37c-1.255-.212-2.991-1.292-2.991-2.742v-.545h-1.126v.545c0 1.459-1.634 2.548-2.982 2.742l.508.877c1.136-.249 2.603-1.126 3.028-2.234.471 1.08 1.892 1.939 3.018 2.197l.545-.84z"/>
    <path fill="#585151" fill-rule="evenodd" d="M84.23 78.252c0-.828.672-1.5 1.5-1.5h6.14c.828 0 1.5.672 1.5 1.5v6.141c0 .588-.34 1.097-.832 1.343v.572c0 .46-.371.831-.83.831-.46 0-.831-.372-.831-.83v-.416h-4.154v.415c0 .46-.372.831-.83.831-.46 0-.831-.372-.831-.83v-.573c-.493-.246-.831-.755-.831-1.343v-6.14zM86.478 78c-.552 0-1 .447-1 1v2.155c0 .552.448 1 1 1h4.646c.552 0 1-.448 1-1v-2.155c0-.553-.448-1-1-1h-4.646zm-.17 6.232c0 .23-.185.415-.415.415-.23 0-.415-.186-.415-.415 0-.23.186-.416.415-.416.23 0 .416.186.416.416zm5.4.415c.23 0 .416-.186.416-.415 0-.23-.186-.416-.415-.416-.23 0-.416.186-.416.416 0 .23.186.415.416.415z" clip-rule="evenodd"/>
    <mask id="ohenhg9qma" width="15" height="14" x="69" y="62" maskUnits="userSpaceOnUse">
        <ellipse cx="76.442" cy="68.962" fill="#000" rx="6.635" ry="6.636"/>
    </mask>
    <g mask="url(#ohenhg9qma)">
        <ellipse cx="76.442" cy="68.962" fill="#F4F4F4" rx="6.635" ry="6.636"/>
        <path fill="#585151" d="M76.442 75.598c3.665 0 6.635-2.971 6.635-6.636 0-.52-.06-1.026-.173-1.512h-1.557c-.704 0-1.39.214-1.969.615l-4.997 3.456c-.579.4-1.266.614-1.97.614h-1.797c1.125 2.063 3.313 3.463 5.828 3.463zM69.98 70.473c-.112-.486-.172-.992-.172-1.511 0-3.666 2.97-6.637 6.634-6.637 2.515 0 4.703 1.4 5.828 3.462h-1.797c-.704 0-1.39.215-1.969.615l-4.998 3.456c-.578.4-1.265.615-1.968.615H69.98z"/>
    </g>
    <mask id="czncngfqkb" width="14" height="14" x="271" y="62" maskUnits="userSpaceOnUse">
        <ellipse cx="278.365" cy="68.962" fill="#000" rx="6.635" ry="6.636"/>
    </mask>
    <g mask="url(#czncngfqkb)">
        <ellipse cx="278.365" cy="68.962" fill="#F4F4F4" rx="6.635" ry="6.636"/>
        <path fill="#585151" d="M278.365 75.598c3.665 0 6.635-2.971 6.635-6.636 0-.52-.06-1.026-.173-1.512h-1.557c-.704 0-1.39.214-1.969.615l-4.997 3.456c-.579.4-1.266.614-1.969.614h-1.798c1.126 2.063 3.314 3.463 5.828 3.463zM271.904 70.473c-.113-.486-.173-.992-.173-1.511 0-3.666 2.97-6.637 6.634-6.637 2.515 0 4.703 1.4 5.828 3.462h-1.797c-.704 0-1.39.215-1.969.615l-4.997 3.456c-.579.4-1.266.615-1.969.615h-1.557z"/>
    </g>
</svg>
