<svg xmlns="http://www.w3.org/2000/svg" width="360" height="277" fill="none"><path fill="#CAC1C1" d="M279.808 32.894h-2.885v211.212h2.885V32.894zm-152.885 0h-2.885v211.212h2.885V32.894zm49.039 0h-2.885v211.212h2.885V32.894z"/><path fill="#CAC1C1" d="M319.615 67.519H40.385v2.884h279.23V67.52zm0 139.077H40.385v2.884h279.23v-2.884z"/><path fill="#CAC1C1" d="M230.769 239.779V37.221a4.327 4.327 0 10-8.654 0v202.558a4.327 4.327 0 008.654 0zM77.885 32.894H75v211.212h2.885V32.894z"/><path fill="#585151" d="M26.585 73.359v-8.07h-.702v2.88H24v.592h1.883v4.598h.702zm-1.791-2.465c-1.108-.647-2.068-1.958-2.068-3.435V65.99h-.73v1.496c0 1.43-.931 2.862-2.104 3.6l.462.527c.932-.674 1.726-1.671 2.012-2.678.323.97 1.256 1.995 1.994 2.493l.434-.535zm10.156-1.108c-1.2-.111-2.843-1.025-2.982-2.06h2.594v-.59h-5.944v.59h2.612c-.13 1.035-1.67 1.958-2.982 2.106l.296.59c1.394-.258 2.695-1.024 3.046-1.91.424.877 1.717 1.643 3.046 1.883l.314-.61zm.286 2.548v-.59h-3.305v-1.838h-.701v1.837h-3.277v.591h7.283zm-2.326-6.103v-.637h-2.64v.637h2.64zm296.093.776h1.468v1.32h-1.468l-.009.582h1.477v1.135h.701V65.29h-.701v1.126h-1.477l.009.591zm-3.24 3.462v.582h4.708v2.317h.701V70.47h-5.409zm.979-4.709c-1.136 0-2.077.776-2.077 1.948 0 1.164.941 1.902 2.077 1.902 1.135 0 2.067-.738 2.067-1.911 0-1.182-.932-1.939-2.067-1.939zm0 .6c.83 0 1.366.536 1.366 1.348 0 .803-.545 1.33-1.366 1.33-.794 0-1.376-.526-1.376-1.339s.582-1.339 1.376-1.339zm13.257 1.551v-.59h-1.228v-2.032h-.701v4.672h.701v-2.05h1.228zm-1.228 5.337v-2.862h-5.067v2.862h5.067zm-.701-.582h-3.665v-1.698h3.665v1.698zm-.96-3.684c-.914-.332-1.975-1.32-1.975-2.603v-.711h-.711v.738c0 1.284-.877 2.3-2.031 2.835l.434.535c.941-.48 1.726-1.283 1.975-2.142.323.813 1.117 1.524 1.893 1.893l.415-.545zM91.939 57.852v-.86h-2.724v-2.51h-1.07v2.51h-.886v-2.51h-1.09v2.51h-1.661v.86h7.43zm-.813-6.214h-5.76v.867h4.67c.01 1.182-.073 2.512-.313 3.435l1.043.148c.259-1.099.36-2.364.36-4.45zm8.365 7.377v-8.227h-1.034v3.241h-.729v-3.093h-1.015v7.7h1.015v-3.748h.73v4.127h1.033zm-5.677-2.835v-3.564c.684 0 1.357.01 2.031.01v-.86h-3.11v5.3h.784c.95 0 2.16-.055 2.778-.22l-.101-.85c-.554.138-1.541.212-2.382.184zm7.738-.258v.859h4.652v2.243h1.08v-3.102h-5.732zm3.471-1.311h1.181v.886h1.08v-4.709h-1.08v1.007h-1.181l.027.904h1.154v1.007h-1.154l-.027.905zm-4.468-1.385c0 1.163.932 1.939 2.105 1.939 1.2 0 2.114-.776 2.114-1.94 0-1.154-.933-2.012-2.114-2.012-1.191 0-2.105.868-2.105 2.013zm1.043-.01c0-.59.416-1.108 1.062-1.108.683 0 1.08.5 1.08 1.109 0 .627-.434 1.108-1.08 1.108-.646 0-1.062-.462-1.062-1.108zM63.019 24.875v-.591h-3.804v-2.918h-.701v2.918h-2.779v.59h7.284zm-.979-6.067h-5.557v.591h4.828v.785c0 1.062-.102 2.28-.286 3.038l.692.11c.24-1.024.314-2.28.323-3.508v-1.016zm8.965 3.805v-.591H67.71v-1.284h-.702v1.284h-3.286v.59h7.283zm-.332-2.06c-1.21-.11-2.935-1.052-2.935-2.188v-.295h-.73v.295c0 1.136-1.56 2.06-2.917 2.207l.333.591c1.384-.25 2.612-1.117 2.935-1.893.388.776 1.652 1.644 2.99 1.893l.324-.61zm-6.166 2.918v.582h4.901v2.04h.702v-2.622h-5.603zm8.18.093v-2.04h2.797v-.573h-2.797v-1.672h3.12v-.581h-3.821v5.466h.83c1.422 0 2.78-.12 3.665-.286l-.083-.591c-.803.175-2.206.277-3.535.277h-.176zm5.622 2.474v-8.07h-.702v3.093H76.01v.6h1.597v4.377h.702zm7.959 0v-8.07h-.701v8.07h.701zm-2.317-2.077v-5.162H80.14v5.162h3.812zm-.701-.582h-2.4v-3.998h2.4v3.998zm11.023-1.228v-4.183h-.701v1.404h-2.465v.581h2.465v2.198h.701zm.305 3.823v-.582H89.74v-.868h4.541v-1.948H89.03v.581h4.551v.813h-4.542v2.004h5.539zm-2.216-5.06c-.913.194-2.455.36-3.535.341v-2.834h-.701v3.434h.6c1.061 0 2.87-.166 3.729-.35l-.093-.591zm128.881.046v-.591h-1.228v-2.4h-.701v5.853h.701V20.96h1.228zm-.914 4.801v-.581h-4.744v-1.903h-.702v2.484h5.446zm-2.455-3.158v-4.09h-.711v1.385h-2.4v-1.385h-.701v4.09h3.812zm-.711-.572h-2.4v-1.56h2.4v1.56zm11.227.646v-.59h-1.32l.323-2.134-.692-.12-.287 2.253h-1.984l-.166-2.262-.72.102.221 2.16h-1.32v.591h2.631v1.745h-3.277v.591h7.283v-.59h-3.304v-1.746h2.612zm.009-3.287v-.59h-5.963v.59h5.963zm4.292 5.614h.729v-6.196h-.729v6.196zm4.705.102c.73 0 1.293-.167 1.708-.407v-.618c-.388.194-.849.406-1.615.406-1.422 0-2.013-.923-2.013-2.511v-.305c0-1.644.831-2.345 2.004-2.345.609 0 1.07.138 1.56.332v-.61c-.379-.203-.859-.341-1.524-.341-1.578 0-2.815.868-2.815 3.084v.184c0 2.096 1.025 3.13 2.695 3.13zm-16.965 233.497v-8.07h-.702v2.881h-1.883v.59h1.883v4.599h.702zm-1.791-2.466c-1.108-.646-2.068-1.957-2.068-3.434v-1.469h-.729v1.496c0 1.431-.932 2.863-2.105 3.601l.462.527c.932-.674 1.726-1.672 2.012-2.678.323.969 1.256 1.994 1.994 2.493l.434-.536zm10.156-1.108c-1.2-.11-2.843-1.025-2.982-2.059h2.594v-.591h-5.944v.591h2.612c-.129 1.034-1.671 1.958-2.982 2.106l.296.59c1.394-.258 2.695-1.024 3.046-1.911.425.877 1.717 1.644 3.046 1.884l.314-.61zm.286 2.549v-.591h-3.304v-1.838h-.702v1.838h-3.277v.591h7.283zm-2.326-6.103v-.638h-2.64v.638h2.64zm5.935 6.094h.729v-6.196h-.729v6.196zm4.705.101c.73 0 1.293-.166 1.708-.406v-.619c-.388.194-.849.406-1.615.406-1.422 0-2.013-.923-2.013-2.511v-.305c0-1.643.831-2.345 2.004-2.345.609 0 1.07.139 1.56.332v-.609c-.379-.203-.859-.342-1.524-.342-1.578 0-2.815.868-2.815 3.084v.185c0 2.096 1.025 3.13 2.695 3.13zM37.772 226.415v-.591h-1.227v-1.837h-.702v4.506h.702v-2.078h1.227zm-1.227 5.466v-2.89H31.44v2.89h5.105zm-.702-.581h-3.702v-1.727h3.702v1.727zm-.71-4.257c-.942.212-2.484.379-3.832.351v-2.936H30.6v3.536h.71c1.284 0 2.955-.166 3.887-.369l-.065-.582zm9.601.813v-3.555h-.701v1.191h-4.108v-1.191h-.71v3.555h5.52zm-2.418 4.21v-2.659h3.305v-.591h-7.284v.591h3.277v2.659h.702zm1.717-4.792h-4.108v-1.21h4.108v1.21zm3.27 2.308v-2.04H50.1v-.573h-2.797v-1.671h3.12v-.582H46.6v5.466h.831c1.421 0 2.779-.12 3.665-.286l-.084-.591c-.802.176-2.206.277-3.535.277h-.175zm5.621 2.475v-8.07h-.701v3.093h-1.597v.6h1.597v4.377h.701zm7.959 0v-8.07h-.701v8.07h.701zm-2.317-2.078v-5.161h-3.812v5.161h3.813zm-.701-.581h-2.4V225.4h2.4v3.998zm11.024-1.228v-4.183h-.702v1.403h-2.465v.582h2.465v2.198h.702zm.304 3.822v-.582h-4.837v-.868h4.542v-1.948h-5.252v.582h4.55v.812h-4.541v2.004h5.538zm-2.215-5.06c-.914.194-2.456.36-3.535.342v-2.835h-.702v3.435h.6c1.062 0 2.87-.166 3.73-.351l-.093-.591zm25.082-35.929v-7.061h-.614v2.521h-1.648v.517h1.648v4.023h.614zm-1.567-2.157c-.97-.566-1.81-1.713-1.81-3.006v-1.284h-.638v1.309c0 1.252-.815 2.504-1.841 3.151l.404.46c.816-.59 1.51-1.462 1.76-2.343.283.848 1.099 1.745 1.745 2.182l.38-.469zm8.595 2.092v-.5h-4.474v-.703h4.248v-1.568h-2.124v-.719h2.892v-.509h-6.373v.509h2.867v.719h-2.14v.493h4.264v.614H94v1.664h5.088zm-.129-5.663c0-.784-.945-1.244-2.512-1.244-1.542 0-2.504.46-2.504 1.244s.962 1.236 2.504 1.236c1.567 0 2.512-.452 2.512-1.236zm-2.512-.735c1.14 0 1.882.283 1.882.735 0 .444-.743.719-1.882.719-1.13 0-1.865-.275-1.865-.719 0-.452.735-.735 1.865-.735zm10.171 5.421v-.517h-2.375v-2.44h-.613v2.44h-1.172v-2.44h-.613v2.44h-1.6v.517h6.373zm-.783-5.235h-4.919v.517h4.28v.638c0 .929-.088 1.995-.25 2.658l.614.097c.202-.897.266-1.996.275-3.07v-.84zm7.351 6.277v-7.061h-.605v2.779h-.945v-2.609h-.598v6.528h.598v-3.402h.945v3.765h.605zm-5.12-2.351v-3.329h2.124v-.517h-2.738v4.379h.468c.921 0 2.108-.081 2.779-.21l-.057-.501c-.597.13-1.656.178-2.366.178h-.21zm29.571-6.882v-7.062h-.614v2.521h-1.648v.517h1.648v4.024h.614zm-1.567-2.157c-.97-.566-1.81-1.713-1.81-3.006v-1.284h-.638v1.308c0 1.253-.815 2.505-1.841 3.151l.404.461c.815-.59 1.51-1.463 1.76-2.343.283.848 1.099 1.745 1.745 2.181l.38-.468zm8.886-.97c-1.05-.097-2.488-.897-2.609-1.802h2.27v-.517h-5.202v.517h2.286c-.113.905-1.462 1.713-2.609 1.842l.259.518c1.219-.227 2.358-.897 2.665-1.673.372.768 1.502 1.438 2.666 1.648l.274-.533zm.251 2.23v-.517h-2.892v-1.608h-.614v1.608h-2.867v.517h6.373zm-2.036-5.34v-.558h-2.31v.558h2.31zm3.79 5.364h.614v-5.542h-.339l-1.276.598v.371l1.001-.234v4.807zm7.362-.363c0-.8-.881-1.228-2.432-1.228-1.542 0-2.415.46-2.415 1.228 0 .783.873 1.236 2.415 1.236 1.551 0 2.432-.445 2.432-1.236zm-.009-3.151v-.509h-4.208v-1.317h4.176v-.509h-4.798v2.335h2.1v.896h-2.875v.509h6.373v-.509h-2.884v-.896h2.116zm-2.423 2.423c1.123 0 1.802.275 1.802.728 0 .468-.679.727-1.802.727-1.106 0-1.785-.259-1.785-.727 0-.453.679-.728 1.785-.728zm-13.972 6.98c-1.082-.122-2.528-.841-2.56-1.834h2.269v-.509h-5.201v.509h2.286c-.033.985-1.398 1.729-2.553 1.85l.283.517c1.204-.202 2.302-.929 2.585-1.592.323.663 1.445 1.374 2.6 1.576l.291-.517zm-2.592 4.217v-2.529h2.891v-.517h-6.373v.517h2.868v2.529h.614zm9.274-1.931v-5.13h-.614v5.13h.614zm.153 1.697v-.509h-4.135v-1.673h-.614v2.182h4.749zm-2.229-2.925v-3.264h-3.328v3.264h3.328zm-.614-.509h-2.108v-2.254h2.108v2.254zm10.13 3.434v-.509h-4.288v-1.721h-.614v2.23h4.902zm-2.665-3.264c-.703-.356-1.454-1.115-1.454-2.141v-.857h-.606v.865c0 1.018-.638 1.915-1.502 2.351l.38.452c.711-.412 1.268-1.123 1.437-1.737.227.598.824 1.228 1.398 1.519l.347-.452zm1.058 1.462v-4.896h-.589v1.729h-1.059v.509h1.059v2.658h.589zm1.341.242v-5.267h-.614v5.267h.614zm1.892-.371v-1.786h2.447v-.501h-2.447v-1.462h2.73v-.509h-3.344v4.783h.727c1.244 0 2.431-.105 3.206-.251l-.072-.517c-.703.154-1.931.243-3.094.243h-.153zm4.919 2.165v-7.061h-.614v2.706h-1.397v.525h1.397v3.83h.614z"/><path fill="#2B6425" d="M142.486 128.03v-.887h-1.172v-1.911h-1.089v4.607h1.089v-1.809h1.172zm-1.172 5.327v-3.13h-5.335v3.13h5.335zm-1.08-.84h-3.166v-1.459h3.166v1.459zm-.517-3.776c-.969-.314-1.911-1.238-1.911-2.503v-.655h-1.116v.702c0 1.246-.794 2.216-1.994 2.649l.655.85c.766-.249 1.652-1.034 1.911-1.865.351.757 1.209 1.413 1.837 1.662l.618-.84zm9.953 1.292v-4.801h-1.08v1.708h-1.403v.859h1.403v2.234h1.08zm-1.883-1.154c-.96-.314-1.901-1.237-1.901-2.511v-.757h-1.117v.812c0 1.247-.794 2.207-1.985 2.641l.646.858c.766-.258 1.662-1.034 1.911-1.874.36.766 1.209 1.422 1.828 1.671l.618-.84zm1.939 2.918c0-1.025-1.034-1.671-2.834-1.671-1.773 0-2.797.646-2.797 1.671 0 .997 1.024 1.653 2.797 1.653 1.8 0 2.834-.656 2.834-1.653zm-2.834-.803c1.107 0 1.717.304 1.717.803 0 .489-.61.785-1.717.785-1.062 0-1.69-.296-1.69-.785 0-.499.628-.803 1.69-.803zm10.442 2.363v-3.038h-5.529v3.038h5.529zm0-7.802h-5.529v.859h4.449c.009.545-.092 1.551-.222 2.087h-5.178v.858h7.431v-.858h-1.228c.175-.785.277-1.847.277-2.946zm-1.071 6.962h-3.388v-1.376h3.388v1.376zm9.224-.582c0-.498-.323-.905-.905-1.172v-.951h1.689v-.868h-7.43v.868h1.68v.951c-.582.267-.887.674-.887 1.172 0 .951 1.071 1.524 2.927 1.524 1.855 0 2.926-.573 2.926-1.524zm-5.797-4.94c0 .905 1.024 1.589 2.871 1.589 1.846 0 2.87-.684 2.87-1.589 0-.914-1.024-1.578-2.88-1.578-1.837 0-2.861.664-2.861 1.578zm1.117 0c0-.443.637-.747 1.744-.747 1.127 0 1.763.304 1.763.747 0 .444-.673.758-1.763.758-1.107 0-1.744-.314-1.744-.758zm3.591 4.95c0 .424-.72.664-1.847.664-1.107 0-1.827-.24-1.827-.664 0-.434.72-.674 1.827-.674 1.127 0 1.847.24 1.847.674zm-2.788-2.133h1.892v.664a6.097 6.097 0 00-.951-.064c-.341 0-.655.028-.941.064v-.664zm-15.739 15.087v-2.936h-5.603v2.936h5.603zm0-3.315v-4.81h-1.025v1.957h-.711v-1.81h-1.006v4.608h1.006v-1.93h.711v1.985h1.025zm-3.425-4.183h-3.166v.868h2.049a3.024 3.024 0 01-.129.582l-2.243.194.166.877 1.652-.221a3.663 3.663 0 01-1.911 1.385l.628.821c1.819-.794 2.954-2.382 2.954-4.506zm2.345 6.658h-3.443v-1.275h3.443v1.275zm6.916-1.21l-.083-.831a16.9 16.9 0 01-1.099.129c.092-1.061.185-2.133.295-3.185l-1.043-.12-.184 3.352c-.231.018-.489.027-.757.036l-.166-3.37c-.36.046-.711.102-1.062.139.083 1.089.185 2.17.268 3.259h-1.08c.037.305.092.6.138.905 1.782 0 3.794-.12 4.773-.314zm1.957 2.151v-8.226h-1.08v3.093h-1.219v.914h1.219V145h1.08zm-2.114-6.666v-.849h-4.579v.849h4.579zm10.728 5.595v-.858h-7.431v.858h7.431zm-.157-3.37c-1.255-.212-2.991-1.292-2.991-2.742v-.545h-1.126v.545c0 1.459-1.634 2.548-2.981 2.742l.507.877c1.136-.249 2.603-1.126 3.028-2.234.471 1.08 1.892 1.939 3.018 2.197l.545-.84z"/><path fill="#585151" d="M258.282 86.978v-.517h-1.074v-1.777h-.614v4.088h.614v-1.794h1.074zm-1.074 4.67v-2.505h-4.435v2.505h4.435zm-.614-.51h-3.207v-1.486h3.207v1.487zm-.84-3.223c-.8-.29-1.729-1.155-1.729-2.278v-.622h-.622v.646c0 1.123-.767 2.012-1.776 2.48l.379.47c.824-.421 1.511-1.124 1.729-1.875.282.71.977 1.333 1.655 1.656l.364-.477zm8.168-1.098v2.254h.613v-4.387h-.613v1.624h-1.519v.508h1.519zm.686 3.587c0-.824-.848-1.333-2.366-1.333-1.511 0-2.359.509-2.359 1.333s.848 1.333 2.359 1.333c1.518 0 2.366-.51 2.366-1.333zm-2.366-.832c1.098 0 1.744.306 1.744.832 0 .533-.646.832-1.744.832-1.083 0-1.737-.3-1.737-.832 0-.525.654-.832 1.737-.832zm.541-1.528c-.8-.29-1.729-1.139-1.729-2.27v-.686h-.622v.702c0 1.123-.735 2.028-1.752 2.497l.379.477c.816-.412 1.486-1.156 1.704-1.883.275.703.978 1.317 1.656 1.64l.364-.477zm-12.2 12.934v-7.061h-.614v2.52h-1.648v.518h1.648v4.023h.614zm-1.567-2.157c-.969-.566-1.809-1.713-1.809-3.005V94.53h-.638v1.309c0 1.252-.816 2.504-1.842 3.15l.404.461c.816-.59 1.51-1.462 1.761-2.343.282.849 1.098 1.745 1.744 2.182l.38-.469zm8.886-.969c-1.05-.098-2.487-.897-2.609-1.802h2.27v-.517h-5.201v.517h2.285c-.113.905-1.462 1.713-2.609 1.842l.259.517c1.22-.226 2.358-.897 2.665-1.672.372.767 1.503 1.438 2.666 1.648l.274-.534zm.251 2.229v-.517h-2.892v-1.607h-.614v1.607h-2.867v.517h6.373zm-2.036-5.34v-.558h-2.31v.558h2.31zm9.218 2.545v-.517h-1.139v-2.852h-.614v7.061h.614v-3.692h1.139zm-2.423 1.503c-.977-.574-1.866-1.73-1.866-3.014V94.54h-.63v1.252c0 1.253-.832 2.521-1.858 3.151l.396.477c.832-.582 1.519-1.479 1.769-2.36.283.857 1.074 1.697 1.801 2.198l.388-.468zm8.499-3.386c0-.807-.921-1.333-2.472-1.333-1.542 0-2.455.526-2.455 1.334 0 .743.783 1.244 2.14 1.308v.711h-2.867v.51h6.373v-.51h-2.892v-.71c1.365-.057 2.173-.566 2.173-1.31zm-.598 0c0 .51-.743.825-1.874.825-1.131 0-1.857-.316-1.857-.825 0-.525.726-.84 1.857-.84s1.874.315 1.874.84zm-4.329 3.256v.51h4.216v1.858h.614v-2.368h-4.83zm29.861-16.191v-.887h-1.173v-1.939h-1.089v4.801h1.089v-1.975h1.173zm-1.071 3.73c0-1.025-1.025-1.671-2.825-1.671-1.763 0-2.787.646-2.787 1.67 0 1.016 1.024 1.672 2.787 1.672 1.8 0 2.825-.656 2.825-1.671zm-1.108 0c0 .508-.628.812-1.717.812-1.071 0-1.689-.304-1.689-.812 0-.499.618-.803 1.689-.803 1.089 0 1.717.304 1.717.803zm-1.292-5.993h-3.831v.896h2.631c-.24 1.385-1.662 2.234-3.028 2.52l.536.86c2.206-.628 3.683-2.023 3.692-4.276zm11.448 2.078v-.887h-1.172v-1.754h-1.089v4.543h1.089v-1.902h1.172zm-1.172 5.484v-3.139h-5.326v3.14h5.326zm-1.089-.849h-3.157v-1.459h3.157v1.459zm-.619-3.481c-.046-.296-.111-.582-.157-.868-1.006.222-2.04.305-3.175.305v-2.807h-1.08v3.72h.821c1.007 0 2.539-.092 3.591-.35zm4.341 1.339v.859h4.652v2.243h1.08v-3.102h-5.732zm3.471-1.311h1.181v.886h1.08v-4.709h-1.08v1.007h-1.181l.027.904h1.154v1.007h-1.154l-.027.905zm-4.468-1.385c0 1.163.932 1.939 2.104 1.939 1.2 0 2.114-.776 2.114-1.94 0-1.153-.932-2.012-2.114-2.012-1.19 0-2.104.868-2.104 2.013zm1.043-.01c0-.59.415-1.107 1.061-1.107.684 0 1.08.498 1.08 1.108 0 .627-.433 1.108-1.08 1.108-.646 0-1.061-.462-1.061-1.109zm-63.438 50.89c0-.932-.997-1.523-2.742-1.523-1.763 0-2.751.591-2.751 1.523 0 .942.988 1.533 2.751 1.533 1.745 0 2.742-.591 2.742-1.533zm-2.742-.932c1.274 0 2.022.341 2.022.932 0 .6-.748.951-2.022.951-1.274 0-2.021-.351-2.021-.951 0-.591.747-.932 2.021-.932zm.194-1.838h1.782v1.367h.701v-5.097h-.701v1.459h-1.653v.582h1.653v1.108h-1.782v.581zm.046-3.102h-3.711v.6h2.917c-.24 1.367-1.606 2.705-3.267 3.167l.35.6c2.133-.748 3.591-2.336 3.711-4.367zm2.243 14.782v-3.554h-.701v1.191h-4.108v-1.191h-.711v3.554h5.52zm-2.418 4.211v-2.659h3.304v-.591h-7.283v.591h3.277v2.659h.702zm1.717-4.792h-4.108v-1.21h4.108v1.21zm1.587 15.161v-.591h-3.803v-2.918h-.701v2.918h-2.779v.591h7.283zm-.978-6.066h-5.557v.59h4.828v.785c0 1.062-.102 2.281-.286 3.038l.692.111c.24-1.025.314-2.281.323-3.509v-1.015zm.978 15.345v-.591h-3.295v-1.283h-.701v1.283h-3.287v.591h7.283zm-.332-2.059c-1.209-.111-2.935-1.052-2.935-2.188v-.295h-.729v.295c0 1.136-1.56 2.059-2.917 2.207l.332.591c1.385-.25 2.612-1.118 2.935-1.893.388.775 1.653 1.643 2.991 1.893l.323-.61zm-6.166 2.918v.582h4.902v2.04h.701v-2.622h-5.603zm6.498 13.084v-.591h-3.304v-1.976h2.483v-.582h-4.874v-2.631h4.828v-.582h-5.539v3.795h2.4v1.976h-3.277v.591h7.283zm0 11.541v-.591h-3.304v-1.375h2.631v-.591h-5.013v-1.348h4.782v-2.466h-5.492v.591h4.79v1.293h-4.781v2.521h2.381v1.375h-3.277v.591h7.283z"/><circle cx="100.385" cy="176.588" r="2.308" fill="#585151"/><circle cx="133.846" cy="199.671" r="2.308" fill="#585151"/><circle cx="258.462" cy="77.329" r="2.308" fill="#585151"/><circle cx="68.077" cy="216.406" r="2.308" fill="#585151"/><ellipse cx="150" cy="155.235" fill="#2B6425" rx="4.038" ry="4.04"/><path fill="#585151" d="M86.317 98.395c1.44 0 2.298-.914 2.298-2.087 0-1.339-.784-1.985-2.049-1.985-.24 0-.581.055-.794.11l.12-1.541h2.437v-.887h-3.304l-.231 3.481c.295-.147.886-.341 1.283-.341.868 0 1.366.332 1.366 1.135 0 .767-.535 1.192-1.412 1.192-.49 0-.97-.176-1.311-.38l-.203.869c.406.25 1.08.434 1.8.434zm8.646-4.137v2.89h1.071v-5.964h-1.07v2.197H93.79v.877h1.172zm1.256 4.93v-.849h-4.514v-1.745h-1.08v2.595h5.594zm-2.843-3.397v-4.127h-1.071v1.292h-1.717v-1.274h-1.09v4.109h3.878zm-1.071-.859h-1.717v-1.135h1.717v1.135zm14.159 4.423v-.794h-4.883v-.379h4.56v-1.91h-2.252v-.398h3.194v-.803h-7.431v.803h3.157v.397h-2.317v.794h4.578v.37h-4.578v1.92h5.972zm.296-5.346c-1.154-.01-2.271-.332-2.687-.831h2.271v-.813h-5.963v.813h2.299c-.388.499-1.477.84-2.733.831l.434.85c1.311-.065 2.511-.508 2.982-1.164.489.646 1.772 1.08 2.981 1.164l.416-.85zm-4.763-1.957h2.732v-.813h-2.732v.813zm12.122-.425h-5.566v.868h4.495c0 1.006-.074 1.93-.222 2.64h-5.187v.86h3.157v3.415h1.08v-3.416h3.193v-.859h-1.218c.185-.941.268-2.179.268-3.508zm-25.338 13.665h1.45v1.182h-1.45v.868h1.45v3.61h1.08v-8.227h-1.08v1.708h-1.45v.859zm.693 2.992c-1.274-.748-1.939-2.022-1.939-3.657v-1.237h-1.107v1.283c0 1.644-.711 2.946-2.04 3.805l.646.794c.858-.471 1.698-1.524 1.966-2.466.286.859 1.163 1.875 1.846 2.29l.628-.812zm9.768 2.604v-.776h-4.735v-.443h4.468v-1.949h-5.576v.785h4.495v.462h-4.458v1.921h5.806zm-.443-5.974v-.767h-4.246v-.406h4.43v-.813h-5.51v3.186h5.585v-.776h-4.505v-.424h4.246zm1.126 2.437v-.859h-7.43v.859h7.43zm7.35 3.601v-8.227h-1.071v2.89h-1.255v.905h1.255v4.432h1.071zm-2.677-2.031v-5.549h-1.08v1.994h-1.744v-1.976h-1.062v5.531h3.886zm-1.08-.85h-1.744v-1.856h1.744v1.856zm12.381 1.81v-.859h-7.431v.859h7.431zm-.157-3.37c-1.255-.212-2.991-1.293-2.991-2.742v-.545h-1.126v.545c0 1.458-1.634 2.548-2.982 2.742l.508.877c1.136-.249 2.603-1.126 3.028-2.234.471 1.08 1.892 1.939 3.018 2.197l.545-.84z"/><path fill="#585151" fill-rule="evenodd" d="M84.23 78.252a1.5 1.5 0 011.5-1.5h6.14a1.5 1.5 0 011.5 1.5v6.14c0 .589-.34 1.098-.832 1.344v.572a.83.83 0 11-1.661.001v-.416h-4.154v.415a.83.83 0 11-1.661.001v-.573a1.5 1.5 0 01-.831-1.343v-6.141zm2.247-.253a1 1 0 00-1 1v2.155a1 1 0 001 1h4.646a1 1 0 001-1v-2.155a1 1 0 00-1-1h-4.646zm-.17 6.232a.414.414 0 11-.83 0 .415.415 0 11.831 0zm5.4.415a.415.415 0 10-.415-.415c0 .23.186.415.416.415z" clip-rule="evenodd"/><ellipse cx="76.442" cy="68.962" fill="#F4F4F4" rx="6.635" ry="6.636"/><path fill="#585151" d="M76.442 75.598a6.635 6.635 0 006.462-8.148h-1.557c-.704 0-1.39.215-1.969.615l-4.997 3.456c-.579.4-1.266.615-1.97.615h-1.797a6.632 6.632 0 005.828 3.462zm-6.462-5.125a6.71 6.71 0 01-.172-1.511 6.635 6.635 0 0112.462-3.174h-1.797c-.704 0-1.39.214-1.969.614l-4.998 3.457c-.578.4-1.265.614-1.968.614H69.98z"/><ellipse cx="278.365" cy="68.962" fill="#F4F4F4" rx="6.635" ry="6.636"/><path fill="#585151" d="M278.365 75.598a6.635 6.635 0 006.462-8.148h-1.557c-.704 0-1.39.215-1.969.615l-4.997 3.456c-.579.4-1.266.615-1.969.615h-1.798a6.634 6.634 0 005.828 3.462zm-6.461-5.125a6.635 6.635 0 0112.289-4.685h-1.797c-.704 0-1.39.214-1.969.614l-4.997 3.457c-.579.4-1.266.614-1.969.614h-1.557z"/></svg>